<?xml version="1.0" encoding="UTF-8" standalone="no"?>
<!-- Created with Inkscape (http://www.inkscape.org/) -->

<svg
   xmlns:dc="http://purl.org/dc/elements/1.1/"
   xmlns:cc="http://creativecommons.org/ns#"
   xmlns:rdf="http://www.w3.org/1999/02/22-rdf-syntax-ns#"
   xmlns:svg="http://www.w3.org/2000/svg"
   xmlns="http://www.w3.org/2000/svg"
   xmlns:sodipodi="http://sodipodi.sourceforge.net/DTD/sodipodi-0.dtd"
   xmlns:inkscape="http://www.inkscape.org/namespaces/inkscape"
   width="210mm"
   height="297mm"
   id="svg3789"
   version="1.1"
   inkscape:version="0.48.3.1 r9886"
   sodipodi:docname="build-own.svg">
  <defs
     id="defs3" />
  <sodipodi:namedview
     inkscape:document-units="mm"
     id="base"
     pagecolor="#ffffff"
     bordercolor="#666666"
     borderopacity="1.0"
     inkscape:pageopacity="0.0"
     inkscape:pageshadow="2"
     inkscape:zoom="0.38"
     inkscape:cx="282.92293"
     inkscape:cy="696.28555"
     inkscape:current-layer="layer1"
     showgrid="false"
     inkscape:window-width="1301"
     inkscape:window-height="744"
     inkscape:window-x="65"
     inkscape:window-y="24"
     inkscape:window-maximized="1" />
  <metadata
     id="metadata4">
    <rdf:RDF>
      <cc:Work
         rdf:about="">
        <dc:format>image/svg+xml</dc:format>
        <dc:type
           rdf:resource="http://purl.org/dc/dcmitype/StillImage" />
        <dc:title />
      </cc:Work>
    </rdf:RDF>
  </metadata>
  <g
     inkscape:label="Layer 1"
     inkscape:groupmode="layer"
     id="layer1">
    <path
       sodipodi:type="arc"
       style="fill:#3895c9;fill-opacity:1;stroke:#f0f7fb;stroke-opacity:1"
       id="path3799"
       sodipodi:cx="387.06897"
       sodipodi:cy="550.63806"
       sodipodi:rx="209.48276"
       sodipodi:ry="213.79311"
       d="m 596.55173,550.63806 a 209.48276,213.79311 0 1 1 -418.96552,0 209.48276,213.79311 0 1 1 418.96552,0 z"
       transform="matrix(1.5788189,0,0,1.4813543,-229.49647,-296.57759)" />
    <path
       sodipodi:type="arc"
       style="fill:#f2f4f5;fill-opacity:1;stroke:#3895c9;stroke-opacity:1"
       id="path4329"
       sodipodi:cx="390.51724"
       sodipodi:cy="554.0863"
       sodipodi:rx="111.20689"
       sodipodi:ry="110.34481"
       d="m 501.72413,554.0863 a 111.20689,110.34481 0 1 1 -222.41377,0 111.20689,110.34481 0 1 1 222.41377,0 z"
       transform="matrix(1.7240341,0,0,1.7560292,-296.32155,-459.43239)" />
    <path
       sodipodi:type="arc"
       style="fill:#3895c9;fill-opacity:1;stroke:#3895c9;stroke-opacity:1"
       id="path4337"
       sodipodi:cx="391.3793"
       sodipodi:cy="558.39667"
       sodipodi:rx="60.34483"
       sodipodi:ry="57.253628"
       d="m 451.72413,558.39667 a 60.34483,57.253628 0 1 1 -120.68966,0 60.34483,57.253628 0 1 1 120.68966,0 z"
       transform="matrix(1.7240341,0,0,1.7560292,-296.32155,-459.43239)" />
    <path
       transform="matrix(1.7240341,0,0,1.7560292,-287.91414,-496.89745)"
       sodipodi:type="arc"
       style="fill:#3895c9;fill-opacity:1;stroke:#3895c9;stroke-width:0.99921262;stroke-miterlimit:4;stroke-opacity:1;stroke-dasharray:none"
       id="path4757"
       sodipodi:cx="293.81506"
       sodipodi:cy="514.1076"
       sodipodi:rx="18.287245"
       sodipodi:ry="17.67767"
       d="m 312.10231,514.1076 a 18.287245,17.67767 0 1 1 -36.57449,0 18.287245,17.67767 0 1 1 36.57449,0 z" />
    <path
       transform="matrix(1.7240341,0,0,1.7560292,25.26235,-284.95209)"
       sodipodi:type="arc"
       style="fill:#3895c9;fill-opacity:1;stroke:#3895c9;stroke-width:0.99921262;stroke-miterlimit:4;stroke-opacity:1;stroke-dasharray:none"
       id="path4757-9"
       sodipodi:cx="293.81506"
       sodipodi:cy="514.1076"
       sodipodi:rx="18.287245"
       sodipodi:ry="17.67767"
       d="m 312.10231,514.1076 a 18.287245,17.67767 0 1 1 -36.57449,0 18.287245,17.67767 0 1 1 36.57449,0 z" />
    <path
       transform="matrix(1.7240341,0,0,1.7560292,-241.67331,-233.5714)"
       sodipodi:type="arc"
       style="fill:#3895c9;fill-opacity:1;stroke:#3895c9;stroke-width:0.99921262;stroke-miterlimit:4;stroke-opacity:1;stroke-dasharray:none"
       id="path4757-6"
       sodipodi:cx="293.81506"
       sodipodi:cy="514.1076"
       sodipodi:rx="18.287245"
       sodipodi:ry="17.67767"
       d="m 312.10231,514.1076 a 18.287245,17.67767 0 1 1 -36.57449,0 18.287245,17.67767 0 1 1 36.57449,0 z" />
    <path
       transform="matrix(1.7240341,0,0,1.7560292,-20.978467,-543.99642)"
       sodipodi:type="arc"
       style="fill:#3895c9;fill-opacity:1;stroke:#3895c9;stroke-width:0.99921262;stroke-miterlimit:4;stroke-opacity:1;stroke-dasharray:none"
       id="path4757-2"
       sodipodi:cx="293.81506"
       sodipodi:cy="514.1076"
       sodipodi:rx="18.287245"
       sodipodi:ry="17.67767"
       d="m 312.10231,514.1076 a 18.287245,17.67767 0 1 1 -36.57449,0 18.287245,17.67767 0 1 1 36.57449,0 z" />
    <path
       sodipodi:type="arc"
       style="fill:#3895c9;fill-opacity:1;stroke:#3895c9;stroke-width:0.99921262;stroke-miterlimit:4;stroke-opacity:1;stroke-dasharray:none"
       id="path5111"
       sodipodi:cx="307.83527"
       sodipodi:cy="473.26611"
       sodipodi:rx="1.8287244"
       sodipodi:ry="3.6574488"
       d="m 309.66399,473.26611 a 1.8287244,3.6574488 0 1 1 -3.65745,0 1.8287244,3.6574488 0 1 1 3.65745,0 z"
       transform="matrix(1.7240341,0,0,1.7560292,-296.32155,-459.43239)" />
    <path
       transform="matrix(1.7240341,0,0,1.7560292,-212.24734,-558.98246)"
       sodipodi:type="arc"
       style="fill:#3895c9;fill-opacity:1;stroke:#3895c9;stroke-width:0.99921262;stroke-miterlimit:4;stroke-opacity:1;stroke-dasharray:none"
       id="path4757-0"
       sodipodi:cx="293.81506"
       sodipodi:cy="514.1076"
       sodipodi:rx="18.287245"
       sodipodi:ry="17.67767"
       d="m 312.10231,514.1076 a 18.287245,17.67767 0 1 1 -36.57449,0 18.287245,17.67767 0 1 1 36.57449,0 z" />
    <path
       transform="matrix(1.7240341,0,0,1.7560292,-123.96941,-580.39108)"
       sodipodi:type="arc"
       style="fill:#3895c9;fill-opacity:1;stroke:#3895c9;stroke-width:0.99921262;stroke-miterlimit:4;stroke-opacity:1;stroke-dasharray:none"
       id="path4757-00"
       sodipodi:cx="293.81506"
       sodipodi:cy="514.1076"
       sodipodi:rx="18.287245"
       sodipodi:ry="17.67767"
       d="m 312.10231,514.1076 a 18.287245,17.67767 0 1 1 -36.57449,0 18.287245,17.67767 0 1 1 36.57449,0 z" />
    <path
       transform="matrix(1.7240341,0,0,1.7560292,-317.34012,-411.26296)"
       sodipodi:type="arc"
       style="fill:#3895c9;fill-opacity:1;stroke:#3895c9;stroke-width:0.99921262;stroke-miterlimit:4;stroke-opacity:1;stroke-dasharray:none"
       id="path4757-68"
       sodipodi:cx="293.81506"
       sodipodi:cy="514.1076"
       sodipodi:rx="18.287245"
       sodipodi:ry="17.67767"
       d="m 312.10231,514.1076 a 18.287245,17.67767 0 1 1 -36.57449,0 18.287245,17.67767 0 1 1 36.57449,0 z" />
    <path
       transform="matrix(1.7240341,0,0,1.7560292,-304.72898,-317.06502)"
       sodipodi:type="arc"
       style="fill:#3895c9;fill-opacity:1;stroke:#3895c9;stroke-width:0.99921262;stroke-miterlimit:4;stroke-opacity:1;stroke-dasharray:none"
       id="path4757-27"
       sodipodi:cx="293.81506"
       sodipodi:cy="514.1076"
       sodipodi:rx="18.287245"
       sodipodi:ry="17.67767"
       d="m 312.10231,514.1076 a 18.287245,17.67767 0 1 1 -36.57449,0 18.287245,17.67767 0 1 1 36.57449,0 z" />
    <path
       transform="matrix(1.7240341,0,0,1.7560292,-151.29352,-197.17672)"
       sodipodi:type="arc"
       style="fill:#3895c9;fill-opacity:1;stroke:#3895c9;stroke-width:0.99921262;stroke-miterlimit:4;stroke-opacity:1;stroke-dasharray:none"
       id="path4757-3"
       sodipodi:cx="293.81506"
       sodipodi:cy="514.1076"
       sodipodi:rx="18.287245"
       sodipodi:ry="17.67767"
       d="m 312.10231,514.1076 a 18.287245,17.67767 0 1 1 -36.57449,0 18.287245,17.67767 0 1 1 36.57449,0 z" />
    <path
       transform="matrix(1.7240341,0,0,1.7560292,-52.506317,-212.16277)"
       sodipodi:type="arc"
       style="fill:#3895c9;fill-opacity:1;stroke:#3895c9;stroke-width:0.99921262;stroke-miterlimit:4;stroke-opacity:1;stroke-dasharray:none"
       id="path4757-004"
       sodipodi:cx="293.81506"
       sodipodi:cy="514.1076"
       sodipodi:rx="18.287245"
       sodipodi:ry="17.67767"
       d="m 312.10231,514.1076 a 18.287245,17.67767 0 1 1 -36.57449,0 18.287245,17.67767 0 1 1 36.57449,0 z" />
    <path
       transform="matrix(1.7240341,0,0,1.7560292,44.17904,-469.06625)"
       sodipodi:type="arc"
       style="fill:#3895c9;fill-opacity:1;stroke:#3895c9;stroke-width:0.99921262;stroke-miterlimit:4;stroke-opacity:1;stroke-dasharray:none"
       id="path4757-5"
       sodipodi:cx="293.81506"
       sodipodi:cy="514.1076"
       sodipodi:rx="18.287245"
       sodipodi:ry="17.67767"
       d="m 312.10231,514.1076 a 18.287245,17.67767 0 1 1 -36.57449,0 18.287245,17.67767 0 1 1 36.57449,0 z" />
    <path
       transform="matrix(1.7240341,0,0,1.7560292,56.79017,-377.00917)"
       sodipodi:type="arc"
       style="fill:#3895c9;fill-opacity:1;stroke:#3895c9;stroke-width:0.99921262;stroke-miterlimit:4;stroke-opacity:1;stroke-dasharray:none"
       id="path4757-7"
       sodipodi:cx="293.81506"
       sodipodi:cy="514.1076"
       sodipodi:rx="18.287245"
       sodipodi:ry="17.67767"
       d="m 312.10231,514.1076 a 18.287245,17.67767 0 1 1 -36.57449,0 18.287245,17.67767 0 1 1 36.57449,0 z" />
  </g>
</svg>
