<?xml version="1.0" encoding="UTF-8" standalone="no"?>
<!-- Created with Inkscape (http://www.inkscape.org/) -->

<svg
   xmlns:osb="http://www.openswatchbook.org/uri/2009/osb"
   xmlns:dc="http://purl.org/dc/elements/1.1/"
   xmlns:cc="http://creativecommons.org/ns#"
   xmlns:rdf="http://www.w3.org/1999/02/22-rdf-syntax-ns#"
   xmlns:svg="http://www.w3.org/2000/svg"
   xmlns="http://www.w3.org/2000/svg"
   xmlns:sodipodi="http://sodipodi.sourceforge.net/DTD/sodipodi-0.dtd"
   xmlns:inkscape="http://www.inkscape.org/namespaces/inkscape"
   width="744.09448819"
   height="1052.3622047"
   id="svg2"
   version="1.1"
   inkscape:version="0.48.3.1 r9886"
   sodipodi:docname="New document 1">
  <defs
     id="defs4">
    <linearGradient
       inkscape:collect="always"
       id="linearGradient3925"
       osb:paint="gradient">
      <stop
         style="stop-color:#3895c9;stop-opacity:1;"
         offset="0"
         id="stop3927" />
      <stop
         style="stop-color:#3895c9;stop-opacity:0;"
         offset="1"
         id="stop3929" />
    </linearGradient>
  </defs>
  <sodipodi:namedview
     id="base"
     pagecolor="#ffffff"
     bordercolor="#666666"
     borderopacity="1.0"
     inkscape:pageopacity="0.0"
     inkscape:pageshadow="2"
     inkscape:zoom="0.82"
     inkscape:cx="350.89127"
     inkscape:cy="387.97203"
     inkscape:document-units="px"
     inkscape:current-layer="layer1"
     showgrid="false"
     inkscape:window-width="1301"
     inkscape:window-height="744"
     inkscape:window-x="65"
     inkscape:window-y="24"
     inkscape:window-maximized="1" />
  <metadata
     id="metadata7">
    <rdf:RDF>
      <cc:Work
         rdf:about="">
        <dc:format>image/svg+xml</dc:format>
        <dc:type
           rdf:resource="http://purl.org/dc/dcmitype/StillImage" />
        <dc:title></dc:title>
      </cc:Work>
    </rdf:RDF>
  </metadata>
  <g
     inkscape:label="Layer 1"
     inkscape:groupmode="layer"
     id="layer1">
    <path
       sodipodi:type="arc"
       style="fill:#3895c9;fill-rule:evenodd;stroke:#000000;stroke-width:0;stroke-linecap:butt;stroke-linejoin:miter;stroke-opacity:1;fill-opacity:1;stroke-miterlimit:4;stroke-dasharray:none"
       id="path2985"
       sodipodi:cx="149.39024"
       sodipodi:cy="535.289"
       sodipodi:rx="60.365852"
       sodipodi:ry="52.439026"
       d="m 209.7561,535.289 a 60.365852,52.439026 0 1 1 -120.731709,0 60.365852,52.439026 0 1 1 120.731709,0 z" />
    <path
       sodipodi:type="arc"
       style="fill:#3895c9;fill-opacity:1;fill-rule:evenodd;stroke:#000000;stroke-width:0;stroke-linecap:butt;stroke-linejoin:miter;stroke-miterlimit:4;stroke-opacity:1;stroke-dasharray:none"
       id="path2987"
       sodipodi:cx="656.70734"
       sodipodi:cy="541.3866"
       sodipodi:rx="54.268291"
       sodipodi:ry="59.7561"
       d="m 710.97563,541.3866 a 54.268291,59.7561 0 1 1 -108.53659,0 54.268291,59.7561 0 1 1 108.53659,0 z" />
    <path
       sodipodi:type="arc"
       style="fill:#3895c9;fill-rule:evenodd;stroke:#000000;stroke-width:0;stroke-linecap:butt;stroke-linejoin:miter;stroke-opacity:1;fill-opacity:1;stroke-miterlimit:4;stroke-dasharray:none"
       id="path2993"
       sodipodi:cx="206.70732"
       sodipodi:cy="485.89877"
       sodipodi:rx="72.560974"
       sodipodi:ry="28.658537"
       d="m 279.2683,485.89877 a 72.560974,28.658537 0 1 1 -145.12195,0 72.560974,28.658537 0 1 1 145.12195,0 z" />
    <path
       sodipodi:type="arc"
       style="fill:#3895c9;fill-rule:evenodd;stroke:#000000;stroke-width:0;stroke-linecap:butt;stroke-linejoin:miter;stroke-opacity:1;fill-opacity:1;stroke-miterlimit:4;stroke-dasharray:none"
       id="path2995"
       sodipodi:cx="264.63416"
       sodipodi:cy="454.80121"
       sodipodi:rx="65.853661"
       sodipodi:ry="43.902439"
       d="m 330.48782,454.80121 a 65.853661,43.902439 0 1 1 -131.70733,0 65.853661,43.902439 0 1 1 131.70733,0 z" />
    <path
       sodipodi:type="arc"
       style="fill:#3895c9;fill-opacity:1;fill-rule:evenodd;stroke:#000000;stroke-width:0;stroke-linecap:butt;stroke-linejoin:miter;stroke-miterlimit:4;stroke-opacity:1;stroke-dasharray:none"
       id="path2997"
       sodipodi:cx="342.68292"
       sodipodi:cy="427.36218"
       sodipodi:rx="50"
       sodipodi:ry="48.170731"
       d="m 392.68292,427.36218 a 50,48.170731 0 1 1 -100,0 50,48.170731 0 1 1 100,0 z" />
    <path
       sodipodi:type="arc"
       style="fill:#3895c9;fill-rule:evenodd;stroke:#000000;stroke-width:0;stroke-linecap:butt;stroke-linejoin:miter;stroke-opacity:1;fill-opacity:1;stroke-miterlimit:4;stroke-dasharray:none"
       id="path3003"
       sodipodi:cx="434.7561"
       sodipodi:cy="434.06949"
       sodipodi:rx="56.707317"
       sodipodi:ry="56.097561"
       d="m 491.46342,434.06949 a 56.707317,56.097561 0 1 1 -113.41463,0 56.707317,56.097561 0 1 1 113.41463,0 z" />
    <path
       sodipodi:type="arc"
       style="fill:#3895c9;fill-opacity:1;fill-rule:evenodd;stroke:#000000;stroke-width:0;stroke-linecap:butt;stroke-linejoin:miter;stroke-miterlimit:4;stroke-opacity:1;stroke-dasharray:none"
       id="path3009"
       sodipodi:cx="513.41461"
       sodipodi:cy="455.41095"
       sodipodi:rx="79.268295"
       sodipodi:ry="51.829269"
       d="m 592.68291,455.41095 a 79.268295,51.829269 0 1 1 -158.53659,0 79.268295,51.829269 0 1 1 158.53659,0 z" />
    <path
       sodipodi:type="arc"
       style="fill:#3895c9;fill-rule:evenodd;stroke:#000000;stroke-width:0;stroke-linecap:butt;stroke-linejoin:miter;stroke-opacity:1;fill-opacity:1;stroke-miterlimit:4;stroke-dasharray:none"
       id="path3011"
       sodipodi:cx="1068.9025"
       sodipodi:cy="288.94754"
       sodipodi:rx="15.243902"
       sodipodi:ry="58.536587"
       d="m 1084.1464,288.94754 a 15.243902,58.536587 0 1 1 -30.4878,0 15.243902,58.536587 0 1 1 30.4878,0 z" />
    <path
       sodipodi:type="arc"
       style="fill:#3895c9;fill-opacity:1;fill-rule:evenodd;stroke:#000000;stroke-width:0;stroke-linecap:butt;stroke-linejoin:miter;stroke-miterlimit:4;stroke-opacity:1;stroke-dasharray:none"
       id="path3013"
       sodipodi:cx="588.41461"
       sodipodi:cy="490.16705"
       sodipodi:rx="72.560974"
       sodipodi:ry="51.219509"
       d="m 660.97559,490.16705 a 72.560974,51.219509 0 1 1 -145.12195,0 72.560974,51.219509 0 1 1 145.12195,0 z" />
    <path
       sodipodi:type="arc"
       style="fill:#3895c9;fill-rule:evenodd;stroke:#000000;stroke-width:0;stroke-linecap:butt;stroke-linejoin:miter;stroke-opacity:1;fill-opacity:1;stroke-miterlimit:4;stroke-dasharray:none"
       id="path3017"
       sodipodi:cx="185.36586"
       sodipodi:cy="606.02069"
       sodipodi:rx="62.195122"
       sodipodi:ry="36.585365"
       d="m 247.56098,606.02069 a 62.195122,36.585365 0 1 1 -124.39024,0 62.195122,36.585365 0 1 1 124.39024,0 z" />
    <path
       sodipodi:type="arc"
       style="fill:#3895c9;fill-rule:evenodd;stroke:#000000;stroke-width:0;stroke-linecap:butt;stroke-linejoin:miter;stroke-opacity:1;fill-opacity:1;stroke-miterlimit:4;stroke-dasharray:none"
       id="path3019"
       sodipodi:cx="271.34146"
       sodipodi:cy="649.31342"
       sodipodi:rx="64.024391"
       sodipodi:ry="38.414635"
       d="m 335.36585,649.31342 a 64.024391,38.414635 0 1 1 -128.04878,0 64.024391,38.414635 0 1 1 128.04878,0 z" />
    <path
       sodipodi:type="arc"
       style="fill:#3895c9;fill-opacity:1;fill-rule:evenodd;stroke:#000000;stroke-width:0;stroke-linecap:butt;stroke-linejoin:miter;stroke-miterlimit:4;stroke-opacity:1;stroke-dasharray:none"
       id="path3021"
       sodipodi:cx="371.34146"
       sodipodi:cy="680.41095"
       sodipodi:rx="96.951218"
       sodipodi:ry="40.243904"
       d="m 468.29268,680.41095 a 96.951218,40.243904 0 1 1 -193.90244,0 96.951218,40.243904 0 1 1 193.90244,0 z" />
    <path
       sodipodi:type="arc"
       style="fill:#3895c9;fill-opacity:1;fill-rule:evenodd;stroke:#000000;stroke-width:0;stroke-linecap:butt;stroke-linejoin:miter;stroke-miterlimit:4;stroke-opacity:1;stroke-dasharray:none"
       id="path3023"
       sodipodi:cx="458.53659"
       sodipodi:cy="685.89874"
       sodipodi:rx="57.317074"
       sodipodi:ry="44.512196"
       d="m 515.85366,685.89874 a 57.317074,44.512196 0 1 1 -114.63414,0 57.317074,44.512196 0 1 1 114.63414,0 z" />
    <path
       sodipodi:type="arc"
       style="fill:#3895c9;fill-opacity:1;fill-rule:evenodd;stroke:#000000;stroke-width:0;stroke-linecap:butt;stroke-linejoin:miter;stroke-miterlimit:4;stroke-opacity:1;stroke-dasharray:none"
       id="path3027"
       sodipodi:cx="540.85364"
       sodipodi:cy="676.75244"
       sodipodi:rx="62.804878"
       sodipodi:ry="39.024387"
       d="m 603.65852,676.75244 a 62.804878,39.024387 0 1 1 -125.60976,0 62.804878,39.024387 0 1 1 125.60976,0 z" />
    <path
       sodipodi:type="arc"
       style="fill:#3895c9;fill-rule:evenodd;stroke:#000000;stroke-width:0;stroke-linecap:butt;stroke-linejoin:miter;stroke-opacity:1;fill-opacity:1;stroke-miterlimit:4;stroke-dasharray:none"
       id="path3031"
       sodipodi:cx="593.29266"
       sodipodi:cy="639.55731"
       sodipodi:rx="66.463417"
       sodipodi:ry="42.07317"
       d="m 659.75608,639.55731 a 66.463417,42.07317 0 1 1 -132.92683,0 66.463417,42.07317 0 1 1 132.92683,0 z" />
    <path
       sodipodi:type="arc"
       style="fill:#3895c9;fill-opacity:1;fill-rule:evenodd;stroke:#000000;stroke-width:0;stroke-linecap:butt;stroke-linejoin:miter;stroke-miterlimit:4;stroke-opacity:1;stroke-dasharray:none"
       id="path3033"
       sodipodi:cx="626.82928"
       sodipodi:cy="593.82562"
       sodipodi:rx="53.658535"
       sodipodi:ry="75.609756"
       d="m 680.48782,593.82562 a 53.658535,75.609756 0 1 1 -107.31707,0 53.658535,75.609756 0 1 1 107.31707,0 z" />
    <path
       sodipodi:type="arc"
       style="fill:#3895c9;fill-rule:evenodd;stroke:#000000;stroke-width:0;stroke-linecap:butt;stroke-linejoin:miter;stroke-opacity:1;fill-opacity:1;stroke-miterlimit:4;stroke-dasharray:none"
       id="path3039"
       sodipodi:cx="221.34146"
       sodipodi:cy="546.87439"
       sodipodi:rx="44.512196"
       sodipodi:ry="67.68293"
       d="m 265.85366,546.87439 a 44.512196,67.68293 0 1 1 -89.02439,0 44.512196,67.68293 0 1 1 89.02439,0 z" />
    <path
       sodipodi:type="arc"
       style="fill:#3895c9;fill-rule:evenodd;stroke:#000000;stroke-width:0;stroke-linecap:butt;stroke-linejoin:miter;stroke-opacity:1;fill-opacity:1;stroke-miterlimit:4;stroke-dasharray:none"
       id="path3043"
       sodipodi:cx="312.80487"
       sodipodi:cy="558.45972"
       sodipodi:rx="94.512192"
       sodipodi:ry="98.780495"
       d="m 407.31706,558.45972 a 94.512192,98.780495 0 1 1 -189.02438,0 94.512192,98.780495 0 1 1 189.02438,0 z" />
    <path
       sodipodi:type="arc"
       style="fill:#3895c9;fill-rule:evenodd;stroke:#000000;stroke-width:0;stroke-linecap:butt;stroke-linejoin:miter;stroke-opacity:1;fill-opacity:1;stroke-miterlimit:4;stroke-dasharray:none"
       id="path3045"
       sodipodi:cx="434.14633"
       sodipodi:cy="556.63049"
       sodipodi:rx="142.68294"
       sodipodi:ry="112.80489"
       d="m 576.82927,556.63049 a 142.68294,112.80489 0 1 1 -285.36588,0 142.68294,112.80489 0 1 1 285.36588,0 z" />
    <path
       sodipodi:type="arc"
       style="fill:#3895c9;fill-rule:evenodd;stroke:#000000;stroke-width:0;stroke-linecap:butt;stroke-linejoin:miter;stroke-opacity:1;fill-opacity:1;stroke-miterlimit:4;stroke-dasharray:none"
       id="path3047"
       sodipodi:cx="573.78052"
       sodipodi:cy="556.63049"
       sodipodi:rx="72.560974"
       sodipodi:ry="77.439026"
       d="m 646.34149,556.63049 a 72.560974,77.439026 0 1 1 -145.12195,0 72.560974,77.439026 0 1 1 145.12195,0 z" />
    <path
       style="fill:#3895c9;fill-opacity:1;stroke-width:0;stroke-miterlimit:4;stroke-dasharray:none"
       d="m 414.57927,667.274 c -37.13174,-4.54745 -69.47251,-19.48253 -91.71135,-42.35268 -21.0741,-21.67233 -31.23386,-46.25589 -29.85433,-72.23849 0.75709,-14.25933 3.0965,-23.31707 9.2928,-35.97989 16.64899,-34.02405 51.38405,-58.37457 97.63873,-68.44825 16.26512,-3.54233 53.60016,-3.24789 70.59318,0.55674 23.61408,5.28704 44.25518,14.54413 61.69231,27.6677 5.03711,3.79104 9.43729,7.34408 9.77817,7.89564 0.34089,0.55155 -1.75328,2.39354 -4.65368,4.09329 -18.24584,10.69277 -32.40058,32.43391 -36.21948,55.63178 -2.89686,17.59693 1.22834,38.84975 10.60853,54.65443 5.33698,8.9923 17.16857,21.07465 25.27126,25.80688 l 5.72671,3.34457 -5.04335,4.55636 c -16.45095,14.86245 -46.16373,28.38916 -72.50975,33.00999 -13.67479,2.39842 -38.51692,3.28291 -50.60975,1.80193 l 0,0 z"
       id="path3049"
       inkscape:connector-curvature="0" />
    <text
       xml:space="preserve"
       style="font-size:40px;font-style:normal;font-weight:normal;line-height:125%;letter-spacing:0px;word-spacing:0px;fill:#000000;fill-opacity:1;stroke:none;font-family:Sans"
       x="297.56097"
       y="564.55731"
       id="text3935"
       sodipodi:linespacing="125%"><tspan
         sodipodi:role="line"
         id="tspan3937"
         x="297.56097"
         y="564.55731"
         style="font-weight:bold;-inkscape-font-specification:Sans Bold;fill:#e4e4e4;fill-opacity:1;font-size:48px">EDcellence</tspan></text>
  </g>
</svg>
