<?xml version="1.0" encoding="UTF-8" standalone="no"?>
<!-- Created with Inkscape (http://www.inkscape.org/) -->

<svg
   xmlns:dc="http://purl.org/dc/elements/1.1/"
   xmlns:cc="http://creativecommons.org/ns#"
   xmlns:rdf="http://www.w3.org/1999/02/22-rdf-syntax-ns#"
   xmlns:svg="http://www.w3.org/2000/svg"
   xmlns="http://www.w3.org/2000/svg"
   xmlns:sodipodi="http://sodipodi.sourceforge.net/DTD/sodipodi-0.dtd"
   xmlns:inkscape="http://www.inkscape.org/namespaces/inkscape"
   width="297mm"
   height="210mm"
   id="svg4068"
   version="1.1"
   inkscape:version="0.48.3.1 r9886"
   sodipodi:docname="New document 13">
  <defs
     id="defs4070" />
  <sodipodi:namedview
     inkscape:document-units="mm"
     pagecolor="#ffffff"
     bordercolor="#666666"
     borderopacity="1.0"
     inkscape:pageopacity="0.0"
     inkscape:pageshadow="2"
     inkscape:zoom="0.43415836"
     inkscape:cx="490"
     inkscape:cy="380"
     inkscape:current-layer="layer1"
     id="namedview4072"
     showgrid="false"
     inkscape:window-width="1301"
     inkscape:window-height="744"
     inkscape:window-x="65"
     inkscape:window-y="24"
     inkscape:window-maximized="1" />
  <metadata
     id="metadata4074">
    <rdf:RDF>
      <cc:Work
         rdf:about="">
        <dc:format>image/svg+xml</dc:format>
        <dc:type
           rdf:resource="http://purl.org/dc/dcmitype/StillImage" />
        <dc:title></dc:title>
      </cc:Work>
    </rdf:RDF>
  </metadata>
  <g
     inkscape:label="Layer 1"
     inkscape:groupmode="layer"
     id="layer1">
    <path
       transform="matrix(0.37223425,0,0,0.49703356,-145.72699,-56.390312)"
       sodipodi:type="arc"
       style="fill:#00c4ff;fill-opacity:1;fill-rule:evenodd;stroke:#000000;stroke-width:0;stroke-linecap:butt;stroke-linejoin:miter;stroke-miterlimit:4;stroke-opacity:1;stroke-dasharray:none"
       id="path3801"
       sodipodi:cx="1357.7043"
       sodipodi:cy="744.25983"
       sodipodi:rx="679.87915"
       sodipodi:ry="238.26581"
       d="m 2037.5835,744.25983 a 679.87915,238.26581 0 1 1 -1359.7583,0 679.87915,238.26581 0 1 1 1359.7583,0 z" />
    <path
       transform="matrix(0.37223425,0,0,0.49703356,-145.72699,-56.390312)"
       sodipodi:type="arc"
       style="fill:#00c4ff;fill-opacity:1;fill-rule:evenodd;stroke:#000000;stroke-width:0;stroke-linecap:butt;stroke-linejoin:miter;stroke-miterlimit:4;stroke-opacity:1;stroke-dasharray:none"
       id="path3807"
       sodipodi:cx="932.52307"
       sodipodi:cy="532.69623"
       sodipodi:rx="258.80597"
       sodipodi:ry="149.94315"
       d="m 1191.329,532.69623 a 258.80597,149.94315 0 1 1 -517.6119,0 258.80597,149.94315 0 1 1 517.6119,0 z" />
    <path
       transform="matrix(0.37223425,0,0,0.49703356,-145.72699,-56.390312)"
       sodipodi:type="arc"
       style="fill:#00c2ff;fill-opacity:1;fill-rule:evenodd;stroke:#000000;stroke-width:0;stroke-linecap:butt;stroke-linejoin:miter;stroke-miterlimit:4;stroke-opacity:1;stroke-dasharray:none"
       id="path3809"
       sodipodi:cx="1361.8124"
       sodipodi:cy="438.21152"
       sodipodi:rx="310.15637"
       sodipodi:ry="141.72708"
       d="m 1671.9688,438.21152 a 310.15637,141.72708 0 1 1 -620.3128,0 310.15637,141.72708 0 1 1 620.3128,0 z" />
    <path
       transform="matrix(0.37223425,0,0,0.49703356,-145.72699,-56.390312)"
       sodipodi:type="arc"
       style="fill:#00c4ff;fill-opacity:1;fill-rule:evenodd;stroke:#000000;stroke-width:0;stroke-linecap:butt;stroke-linejoin:miter;stroke-miterlimit:4;stroke-opacity:1;stroke-dasharray:none"
       id="path3811"
       sodipodi:cx="1807.5338"
       sodipodi:cy="436.1575"
       sodipodi:rx="209.5096"
       sodipodi:ry="230.04974"
       d="m 2017.0434,436.1575 a 209.5096,230.04974 0 1 1 -419.0192,0 209.5096,230.04974 0 1 1 419.0192,0 z" />
    <path
       transform="matrix(0.37223425,0,0,0.49703356,-145.72699,-56.390312)"
       sodipodi:type="arc"
       style="fill:#00c6ff;fill-opacity:1;fill-rule:evenodd;stroke:#000000;stroke-width:0;stroke-linecap:butt;stroke-linejoin:miter;stroke-miterlimit:4;stroke-opacity:1;stroke-dasharray:none"
       id="path3819"
       sodipodi:cx="2095.0959"
       sodipodi:cy="653.88318"
       sodipodi:rx="271.13007"
       sodipodi:ry="423.12723"
       d="m 2366.226,653.88318 a 271.13007,423.12723 0 1 1 -542.2601,0 271.13007,423.12723 0 1 1 542.2601,0 z" />
    <path
       transform="matrix(0.37223425,0,0,0.49703356,-145.72699,-56.390312)"
       sodipodi:type="arc"
       style="fill:#00c5ff;fill-opacity:1;fill-rule:evenodd;stroke:#000000;stroke-width:0;stroke-linecap:butt;stroke-linejoin:miter;stroke-miterlimit:4;stroke-opacity:1;stroke-dasharray:none"
       id="path3823"
       sodipodi:cx="1024.9539"
       sodipodi:cy="972.25555"
       sodipodi:rx="269.07605"
       sodipodi:ry="182.80739"
       d="m 1294.0299,972.25555 a 269.07605,182.80739 0 1 1 -538.15209,0 269.07605,182.80739 0 1 1 538.15209,0 z" />
    <path
       transform="matrix(0.37223425,0,0,0.49703356,-145.72699,-56.390312)"
       sodipodi:type="arc"
       style="fill:#00c6ff;fill-opacity:1;fill-rule:evenodd;stroke:#000000;stroke-width:0;stroke-linecap:butt;stroke-linejoin:miter;stroke-miterlimit:4;stroke-opacity:1;stroke-dasharray:none"
       id="path3827"
       sodipodi:cx="1224.1934"
       sodipodi:cy="1079.0643"
       sodipodi:rx="151.99716"
       sodipodi:ry="244.42786"
       d="m 1376.1905,1079.0643 a 151.99716,244.42786 0 1 1 -303.9943,0 151.99716,244.42786 0 1 1 303.9943,0 z" />
    <path
       transform="matrix(0.37223425,0,0,0.49703356,-145.72699,-56.390312)"
       sodipodi:type="arc"
       style="fill:#00c6ff;fill-opacity:1;fill-rule:evenodd;stroke:#000000;stroke-width:0;stroke-linecap:butt;stroke-linejoin:miter;stroke-miterlimit:4;stroke-opacity:1;stroke-dasharray:none"
       id="path3831"
       sodipodi:cx="1394.6766"
       sodipodi:cy="1134.5228"
       sodipodi:rx="219.77968"
       sodipodi:ry="188.96944"
       d="m 1614.4563,1134.5228 a 219.77968,188.96944 0 1 1 -439.5593,0 219.77968,188.96944 0 1 1 439.5593,0 z" />
    <path
       transform="matrix(0.37223425,0,0,0.49703356,-145.72699,-56.390312)"
       sodipodi:type="arc"
       style="fill:#00c6ff;fill-opacity:1;fill-rule:evenodd;stroke:#000000;stroke-width:0;stroke-linecap:butt;stroke-linejoin:miter;stroke-miterlimit:4;stroke-opacity:1;stroke-dasharray:none"
       id="path3835"
       sodipodi:cx="1710.995"
       sodipodi:cy="1101.6586"
       sodipodi:rx="347.12863"
       sodipodi:ry="209.5096"
       d="m 2058.1236,1101.6586 a 347.12863,209.5096 0 1 1 -694.2572,0 347.12863,209.5096 0 1 1 694.2572,0 z" />
    <path
       transform="matrix(0.37223425,0,0,0.49703356,-145.72699,-56.390312)"
       sodipodi:type="arc"
       style="fill:#00c4ff;fill-opacity:1;fill-rule:evenodd;stroke:#000000;stroke-width:0;stroke-linecap:butt;stroke-linejoin:miter;stroke-miterlimit:4;stroke-opacity:1;stroke-dasharray:none"
       id="path3837"
       sodipodi:cx="2109.4741"
       sodipodi:cy="1042.0922"
       sodipodi:rx="384.10092"
       sodipodi:ry="232.10376"
       d="m 2493.575,1042.0922 a 384.10092,232.10376 0 1 1 -768.2018,0 384.10092,232.10376 0 1 1 768.2018,0 z" />
    <path
       transform="matrix(0.37223425,0,0,0.49703356,-145.72699,-56.390312)"
       sodipodi:type="arc"
       style="fill:#00c6ff;fill-opacity:1;fill-rule:evenodd;stroke:#000000;stroke-width:0;stroke-linecap:butt;stroke-linejoin:miter;stroke-miterlimit:4;stroke-opacity:1;stroke-dasharray:none"
       id="path3843"
       sodipodi:cx="2407.3064"
       sodipodi:cy="372.483"
       sodipodi:rx="217.72566"
       sodipodi:ry="88.32267"
       d="m 2625.0321,372.483 a 217.72566,88.32267 0 1 1 -435.4514,0 217.72566,88.32267 0 1 1 435.4514,0 z" />
    <path
       transform="matrix(0.37223425,0,0,0.49703356,-145.72699,-56.390312)"
       sodipodi:type="arc"
       style="fill:#00c4ff;fill-opacity:1;fill-rule:evenodd;stroke:#000000;stroke-width:0;stroke-linecap:butt;stroke-linejoin:miter;stroke-miterlimit:4;stroke-opacity:1;stroke-dasharray:none"
       id="path3851"
       sodipodi:cx="2518.2231"
       sodipodi:cy="549.12836"
       sodipodi:rx="332.75052"
       sodipodi:ry="166.37526"
       d="m 2850.9737,549.12836 a 332.75052,166.37526 0 1 1 -665.5011,0 332.75052,166.37526 0 1 1 665.5011,0 z" />
    <path
       transform="matrix(0.37223425,0,0,0.49703356,-145.72699,-56.390312)"
       sodipodi:type="arc"
       style="fill:#00c4ff;fill-opacity:1;fill-rule:evenodd;stroke:#000000;stroke-width:0;stroke-linecap:butt;stroke-linejoin:miter;stroke-miterlimit:4;stroke-opacity:1;stroke-dasharray:none"
       id="path3853"
       sodipodi:cx="2544.9253"
       sodipodi:cy="760.69196"
       sodipodi:rx="351.23666"
       sodipodi:ry="73.944565"
       d="m 2896.162,760.69196 a 351.23666,73.944565 0 1 1 -702.4734,0 351.23666,73.944565 0 1 1 702.4734,0 z" />
    <path
       transform="matrix(0.37223425,0,0,0.49703356,-145.72699,-56.390312)"
       sodipodi:type="arc"
       style="fill:#00c4ff;fill-opacity:1;fill-rule:evenodd;stroke:#000000;stroke-width:0;stroke-linecap:butt;stroke-linejoin:miter;stroke-miterlimit:4;stroke-opacity:1;stroke-dasharray:none"
       id="path3855"
       sodipodi:cx="2544.9253"
       sodipodi:cy="957.87744"
       sodipodi:rx="429.28928"
       sodipodi:ry="184.8614"
       d="m 2974.2146,957.87744 a 429.28928,184.8614 0 1 1 -858.5786,0 429.28928,184.8614 0 1 1 858.5786,0 z" />
  </g>
</svg>
