<?xml version="1.0" encoding="UTF-8" standalone="no"?>
<!-- Created with Inkscape (http://www.inkscape.org/) -->

<svg
   xmlns:dc="http://purl.org/dc/elements/1.1/"
   xmlns:cc="http://creativecommons.org/ns#"
   xmlns:rdf="http://www.w3.org/1999/02/22-rdf-syntax-ns#"
   xmlns:svg="http://www.w3.org/2000/svg"
   xmlns="http://www.w3.org/2000/svg"
   xmlns:sodipodi="http://sodipodi.sourceforge.net/DTD/sodipodi-0.dtd"
   xmlns:inkscape="http://www.inkscape.org/namespaces/inkscape"
   width="744.09448819"
   height="1052.3622047"
   id="svg5202"
   version="1.1"
   inkscape:version="0.48.3.1 r9886"
   sodipodi:docname="thumb.svg">
  <defs
     id="defs5204" />
  <sodipodi:namedview
     id="base"
     pagecolor="#ffffff"
     bordercolor="#666666"
     borderopacity="1.0"
     inkscape:pageopacity="0.0"
     inkscape:pageshadow="2"
     inkscape:zoom="0.5"
     inkscape:cx="-151.95499"
     inkscape:cy="542.27847"
     inkscape:document-units="px"
     inkscape:current-layer="layer1"
     showgrid="false"
     inkscape:window-width="1301"
     inkscape:window-height="744"
     inkscape:window-x="65"
     inkscape:window-y="24"
     inkscape:window-maximized="1" />
  <metadata
     id="metadata5207">
    <rdf:RDF>
      <cc:Work
         rdf:about="">
        <dc:format>image/svg+xml</dc:format>
        <dc:type
           rdf:resource="http://purl.org/dc/dcmitype/StillImage" />
        <dc:title />
      </cc:Work>
    </rdf:RDF>
  </metadata>
  <g
     inkscape:label="Layer 1"
     inkscape:groupmode="layer"
     id="layer1">
    <path
       sodipodi:type="arc"
       style="fill:#3895c9;fill-opacity:1;stroke:#3895c9;stroke-width:0.99921262;stroke-miterlimit:4;stroke-opacity:0.99607843;stroke-dasharray:none"
       id="path5214"
       sodipodi:cx="412"
       sodipodi:cy="639.36218"
       sodipodi:rx="226"
       sodipodi:ry="231"
       d="m 638,639.36218 a 226,231 0 1 1 -452,0 226,231 0 1 1 452,0 z"
       transform="matrix(1.4636821,0,0,1.3713947,-214.03705,-323.45569)" />
    <rect
       style="fill:#fbfcfd;fill-opacity:1;stroke:#3895c9;stroke-width:2.06283712;stroke-miterlimit:4;stroke-opacity:1;stroke-dasharray:none"
       id="rect5216"
       width="56.932541"
       height="116.7826"
       x="253.05426"
       y="544.19073" />
    <rect
       style="fill:#fbfcfd;fill-opacity:1;stroke:#f6f7f8;stroke-width:0;stroke-miterlimit:4;stroke-opacity:1;stroke-dasharray:none"
       id="rect5743"
       width="240.51811"
       height="170.89973"
       x="300.8577"
       y="508.75153"
       ry="27.82089" />
    <path
       transform="matrix(2.2571081,0,0,2.2087986,-306.20374,-1064.6147)"
       sodipodi:type="arc"
       style="fill:#fbfcfd;fill-opacity:1;stroke:#f6f8f6;stroke-width:0;stroke-miterlimit:4;stroke-opacity:1;stroke-dasharray:none"
       id="path5751-6"
       sodipodi:cx="367"
       sodipodi:cy="778.36218"
       sodipodi:rx="11"
       sodipodi:ry="10"
       d="m 378,778.36218 a 11,10 0 1 1 -22,0 11,10 0 1 1 22,0 z" />
    <path
       transform="matrix(2.2571081,0,0,2.2087986,-288.14687,-1104.3731)"
       sodipodi:type="arc"
       style="fill:#fbfcfd;fill-opacity:1;stroke:#f6f8f6;stroke-width:0;stroke-miterlimit:4;stroke-opacity:1;stroke-dasharray:none"
       id="path5751-5"
       sodipodi:cx="367"
       sodipodi:cy="778.36218"
       sodipodi:rx="11"
       sodipodi:ry="10"
       d="m 378,778.36218 a 11,10 0 1 1 -22,0 11,10 0 1 1 22,0 z" />
    <path
       transform="matrix(2.2571081,0,0,2.2087986,-288.14687,-1148.549)"
       sodipodi:type="arc"
       style="fill:#fbfcfd;fill-opacity:1;stroke:#f6f8f6;stroke-width:0;stroke-miterlimit:4;stroke-opacity:1;stroke-dasharray:none"
       id="path5751-0"
       sodipodi:cx="367"
       sodipodi:cy="778.36218"
       sodipodi:rx="11"
       sodipodi:ry="10"
       d="m 378,778.36218 a 11,10 0 1 1 -22,0 11,10 0 1 1 22,0 z" />
    <path
       sodipodi:type="arc"
       style="fill:#fbfcfd;fill-opacity:1;stroke:#ffffff;stroke-width:5;stroke-miterlimit:4;stroke-opacity:1;stroke-dasharray:none"
       id="path5836"
       sodipodi:cx="365"
       sodipodi:cy="605.36218"
       sodipodi:rx="9"
       sodipodi:ry="5"
       d="m 374,605.36218 a 9,5 0 1 1 -10.69963,-4.91003 L 365,605.36218 z"
       sodipodi:start="0"
       sodipodi:end="4.5224007"
       transform="matrix(2.2571081,0,0,2.2087986,-484.51529,-812.81163)" />
    <path
       sodipodi:type="arc"
       style="fill:#fbfcfd;fill-opacity:1;stroke:#ffffff;stroke-width:0;stroke-miterlimit:4;stroke-opacity:1;stroke-dasharray:none"
       id="path5857"
       sodipodi:cx="373"
       sodipodi:cy="606.36218"
       sodipodi:rx="21"
       sodipodi:ry="24"
       d="m 394,606.36218 a 21,24 0 1 1 -42,0 21,24 0 1 1 42,0 z"
       transform="matrix(2.3047272,0,0,2.3754653,-503.2772,-917.87199)" />
    <rect
       style="fill:#fbfcfd;fill-opacity:1;stroke:#ffffff;stroke-width:0;stroke-miterlimit:4;stroke-opacity:1;stroke-dasharray:none"
       id="rect5861"
       width="63.946236"
       height="257.32504"
       x="355.12903"
       y="353.12964"
       ry="30.725378" />
    <path
       sodipodi:type="arc"
       style="fill:#3895c9;fill-opacity:1;stroke:#3895c9;stroke-width:5;stroke-miterlimit:4;stroke-opacity:1;stroke-dasharray:none"
       id="path5905"
       sodipodi:cx="352"
       sodipodi:cy="561.36218"
       sodipodi:rx="22"
       sodipodi:ry="25"
       d="m 374,561.36218 a 22,25 0 1 1 -44,0 22,25 0 1 1 44,0 z"
       transform="matrix(4.0515404,0,0,3.6253187,-1146.6045,-1638.9878)" />
    <path
       sodipodi:type="arc"
       style="fill:#3895c9;fill-opacity:1;stroke:#3895c9;stroke-width:5;stroke-miterlimit:4;stroke-opacity:1;stroke-dasharray:none"
       id="path5905-4-7"
       sodipodi:cx="352"
       sodipodi:cy="561.36218"
       sodipodi:rx="10.858025"
       sodipodi:ry="9.1589737"
       d="m 362.85802,561.36218 a 10.858025,9.1589737 0 1 1 -21.71604,0 10.858025,9.1589737 0 1 1 21.71604,0 z"
       transform="matrix(4.2815333,0,0,7.0415394,-1039.1112,-3480.5647)" />
    <rect
       style="fill:#fcfbfb;fill-rule:evenodd;stroke:#000000;stroke-width:0;stroke-linecap:butt;stroke-linejoin:miter;stroke-opacity:1;fill-opacity:0.96347028;stroke-miterlimit:4;stroke-dasharray:none"
       id="rect2994"
       width="102"
       height="36"
       x="160"
       y="98.362183"
       ry="18" />
    <path
       sodipodi:type="arc"
       style="fill:#fcfbfb;fill-opacity:0.96347028;stroke-width:0;stroke-miterlimit:4;stroke-dasharray:none"
       id="path3800"
       sodipodi:cx="474"
       sodipodi:cy="535.36218"
       sodipodi:rx="64"
       sodipodi:ry="15"
       d="m 538,535.36218 a 64,15 0 1 1 -128,0 64,15 0 1 1 128,0 z"
       transform="matrix(1.109375,0,0,1.8,-42.84375,-434.28974)" />
  </g>
</svg>
